<?xml version="1.0" encoding="UTF-8"?>
<svg width="16px" height="16px" viewBox="0 0 16 16" version="1.1" xmlns="http://www.w3.org/2000/svg" xmlns:xlink="http://www.w3.org/1999/xlink">
    <g stroke="none" stroke-width="1" fill="none" fill-rule="evenodd">
        <g transform="translate(-675.000000, -6210.000000)" fill="#01256E">
            <g transform="translate(659.000000, 6194.000000)">
                <g transform="translate(16.000000, 16.000000)">
                    <path d="M14,11.2 C14,12.7442 12.7442,14 11.2,14 L4.2,14 C2.6558,14 1.4,12.7442 1.4,11.2 L1.4,4.2 C1.4,2.6558 2.6558,1.4 4.2,1.4 L11.2,1.4 C12.7442,1.4 14,2.6558 14,4.2 L14,11.2 Z M11.2,0 L4.2,0 C1.8837,0 0,1.8837 0,4.2 L0,11.2 C0,13.5163 1.8837,15.4 4.2,15.4 L11.2,15.4 C13.5163,15.4 15.4,13.5163 15.4,11.2 L15.4,4.2 C15.4,1.8837 13.5163,0 11.2,0 L11.2,0 Z" id="Fill-1"></path>
                    <path d="M9.41717,8.92087 C9.08257,9.37167 8.59327,9.66427 8.03817,9.74687 C6.89647,9.92117 5.82337,9.12387 5.65327,7.97797 C5.48317,6.83277 6.27697,5.76247 7.42217,5.59237 C7.52437,5.57767 7.62727,5.56927 7.73017,5.56927 C7.83307,5.56927 7.93597,5.57767 8.03817,5.59237 C8.96007,5.72887 9.67057,6.44007 9.80777,7.36197 C9.88967,7.91637 9.75177,8.47007 9.41717,8.92087 M8.24327,4.20777 C7.90307,4.15667 7.55797,4.15667 7.21637,4.20777 C5.30817,4.49057 3.98517,6.27417 4.26797,8.18307 C4.40517,9.10847 4.89447,9.92397 5.64487,10.48117 C6.25457,10.93267 6.97767,11.16997 7.72247,11.16997 C7.89537,11.16997 8.06967,11.15737 8.24327,11.13147 C9.16867,10.99497 9.98487,10.50637 10.54137,9.75457 C11.09787,9.00417 11.32957,8.08157 11.19237,7.15617 C10.96417,5.62037 9.77977,4.43527 8.24327,4.20777" id="Fill-3"></path>
                    <path d="M11.053,3.353 C10.9263,3.486 10.85,3.668 10.85,3.85 C10.85,3.941 10.8633,4.032 10.906,4.116 C10.941,4.2 10.99,4.277 11.053,4.347 C11.1853,4.473 11.368,4.55 11.55,4.55 C11.732,4.55 11.9133,4.473 12.047,4.347 C12.11,4.277 12.159,4.2 12.194,4.116 C12.229,4.032 12.25,3.941 12.25,3.85 C12.25,3.668 12.173,3.486 12.047,3.353 C11.788,3.094 11.319,3.094 11.053,3.353" id="Fill-5"></path>
                </g>
            </g>
        </g>
    </g>
</svg>