<?xml version="1.0" encoding="UTF-8"?>
<svg width="17px" height="16px" viewBox="0 0 17 16" version="1.1" xmlns="http://www.w3.org/2000/svg" xmlns:xlink="http://www.w3.org/1999/xlink">
    <g stroke="none" stroke-width="1" fill="none" fill-rule="evenodd">
        <g transform="translate(-733.000000, -6210.000000)" fill="#01256E" fill-rule="nonzero">
            <g transform="translate(659.000000, 6194.000000)">
                <path d="M89.588767,16 L74.9106896,16 C74.4080715,16 74,16.380106 74,16.8499769 L74,30.5495159 C74,31.0193868 74.4080715,31.4 74.9106896,31.4 L82.8129322,31.4 L82.8129322,25.4362148 L80.6628137,25.4362148 L80.6628137,23.1117105 L82.8129322,23.1117105 L82.8129322,21.3975565 C82.8129322,19.4087828 84.1140338,18.3252651 86.0152885,18.3252651 C86.9267931,18.3252651 87.7084321,18.3889119 87.9363762,18.4165514 L87.9363762,20.4953435 L86.6176151,20.4958506 C85.583852,20.4958506 85.3844349,20.9545643 85.3844349,21.6272937 L85.3844349,23.1109497 L87.8507953,23.1109497 L87.5283047,25.4352006 L85.3841632,25.4352006 L85.3841632,31.3992393 L89.5884954,31.3992393 C90.0916568,31.3992393 90.5,31.0181189 90.5,30.5495159 L90.5,16.8494698 C90.4997283,16.380106 90.0919285,16 89.588767,16 Z" id="Path"></path>
            </g>
        </g>
    </g>
</svg>